<?xml version="1.0" encoding="utf-8"?>
<!-- Generator: Adobe Illustrator 16.0.0, SVG Export Plug-In . SVG Version: 6.00 Build 0)  -->
<!DOCTYPE svg PUBLIC "-//W3C//DTD SVG 1.1//EN" "http://www.w3.org/Graphics/SVG/1.1/DTD/svg11.dtd">
<svg version="1.1" id="Layer_1" xmlns="http://www.w3.org/2000/svg" xmlns:xlink="http://www.w3.org/1999/xlink" x="0px" y="0px"
	 width="56.994px" height="62px" viewBox="0 0 56.994 62" enable-background="new 0 0 56.994 62" xml:space="preserve">
<path fill="#242529" d="M8.114,23.562h29.213c0.896,0,1.62-0.715,1.62-1.603c0-0.885-0.724-1.603-1.62-1.603H8.114
	c-0.897,0-1.622,0.718-1.622,1.603C6.492,22.848,7.217,23.562,8.114,23.562z"/>
<path fill="#242529" d="M8.114,33.173h29.213c0.896,0,1.62-0.719,1.62-1.603c0-0.885-0.724-1.603-1.62-1.603H8.114
	c-0.897,0-1.622,0.717-1.622,1.603C6.492,32.454,7.217,33.173,8.114,33.173z"/>
<path fill="#242529" d="M8.114,42.781h29.213c0.896,0,1.62-0.714,1.62-1.602c0-0.885-0.724-1.602-1.62-1.602H8.114
	c-0.897,0-1.622,0.717-1.622,1.602C6.492,42.067,7.217,42.781,8.114,42.781z"/>
<path fill="#242529" d="M45.44,13.953c0-1.77-1.451-3.204-3.245-3.204H3.246C1.456,10.749,0,12.183,0,13.953v44.842
	C0,60.565,1.456,62,3.246,62H32.46l12.98-12.813V13.953L45.44,13.953z M32.46,57.47v-8.283h8.391L32.46,57.47z M42.196,45.982H32.46
	c-1.797,0-3.248,1.436-3.248,3.205v9.608H3.246V13.953h38.95V45.982z"/>
<path fill="#242529" d="M47.971,5.375H33.063H23.93H9.023c-1.791,0-3.246,1.433-3.246,3.203v1.194h3.246V8.578H23.93h9.133h14.907
	V53.42h-5.421l-3.246,3.204h8.668c1.789,0,3.247-1.434,3.247-3.204V8.578C51.219,6.808,49.761,5.375,47.971,5.375z"/>
<path fill="#242529" d="M53.749,0H38.841h-9.135H14.8c-1.792,0-3.247,1.434-3.247,3.204v1.194H14.8V3.204h14.907h9.134h14.907
	v44.843h-1.54v3.205h1.54c1.791,0,3.246-1.436,3.246-3.205V3.204C56.994,1.434,55.54,0,53.749,0z"/>
</svg>
