<?xml version="1.0" encoding="utf-8"?>
<!-- Generator: Adobe Illustrator 16.0.0, SVG Export Plug-In . SVG Version: 6.00 Build 0)  -->
<!DOCTYPE svg PUBLIC "-//W3C//DTD SVG 1.1//EN" "http://www.w3.org/Graphics/SVG/1.1/DTD/svg11.dtd">
<svg version="1.1" id="Layer_1" xmlns="http://www.w3.org/2000/svg" xmlns:xlink="http://www.w3.org/1999/xlink" x="0px" y="0px"
	 width="69px" height="52px" viewBox="0 0 69 52" enable-background="new 0 0 69 52" xml:space="preserve">
<path fill="#242529" d="M5.138,46.141h27.16V32.958H5.138V46.141z M7.34,35.155h22.755v8.789H7.34V35.155z"/>
<path fill="#242529" d="M5.138,30.029h57.99V10.986H5.138V30.029z M37.882,20.269l23.043-7.064v14.128L37.882,20.269z
	 M55.948,27.831H13.052L34.5,21.256L55.948,27.831z M34.5,19.485l-20.561-6.302h41.121L34.5,19.485z M30.384,20.269L7.34,27.333
	V13.205L30.384,20.269z"/>
<path fill="#242529" d="M38.904,38.817h23.489v2.197H38.904V38.817z"/>
<path fill="#242529" d="M38.904,35.155h23.489v2.197H38.904V35.155z"/>
<path fill="#242529" d="M38.904,42.479h23.489v2.198H38.904V42.479z"/>
<path fill="#242529" d="M36.354,34.656c0.723,0,1.308,0.584,1.308,1.304c0,0.72-0.585,1.303-1.308,1.303
	c-0.721,0-1.306-0.583-1.306-1.303C35.047,35.24,35.633,34.656,36.354,34.656z"/>
<path fill="#242529" d="M36.354,38.379c0.723,0,1.308,0.584,1.308,1.305c0,0.719-0.585,1.303-1.308,1.303
	c-0.721,0-1.306-0.584-1.306-1.303C35.047,38.963,35.633,38.379,36.354,38.379z"/>
<path fill="#242529" d="M36.354,42.103c0.723,0,1.308,0.584,1.308,1.304c0,0.72-0.585,1.303-1.308,1.303
	c-0.721,0-1.306-0.583-1.306-1.303C35.047,42.687,35.633,42.103,36.354,42.103z"/>
<path fill="#242529" d="M69,2.298C69,1.029,67.969,0,66.698,0H2.303C1.03,0,0,1.029,0,2.298v47.405C0,50.972,1.03,52,2.303,52
	h64.395C67.969,52,69,50.972,69,49.703V2.298z M12.525,2.246c0.72,0,1.304,0.582,1.304,1.302c0,0.719-0.584,1.302-1.304,1.302
	s-1.304-0.582-1.304-1.302C11.221,2.828,11.805,2.246,12.525,2.246z M8.815,2.246c0.721,0,1.305,0.582,1.305,1.302
	c0,0.719-0.583,1.302-1.305,1.302c-0.721,0-1.304-0.582-1.304-1.302C7.511,2.828,8.096,2.246,8.815,2.246z M5.106,2.246
	c0.721,0,1.305,0.582,1.305,1.302c0,0.719-0.584,1.302-1.305,1.302c-0.72,0-1.303-0.582-1.303-1.302
	C3.803,2.828,4.387,2.246,5.106,2.246z M65.33,48.338H3.67V9.475V7.923V5.859h15.415v2.197H65.33V48.338z"/>
</svg>
