<?xml version="1.0" encoding="utf-8"?>
<!-- Generator: Adobe Illustrator 16.0.0, SVG Export Plug-In . SVG Version: 6.00 Build 0)  -->
<!DOCTYPE svg PUBLIC "-//W3C//DTD SVG 1.1//EN" "http://www.w3.org/Graphics/SVG/1.1/DTD/svg11.dtd">
<svg version="1.1" id="Layer_1" xmlns="http://www.w3.org/2000/svg" xmlns:xlink="http://www.w3.org/1999/xlink" x="0px" y="0px"
	 width="79px" height="61px" viewBox="0 0 79 61" enable-background="new 0 0 79 61" xml:space="preserve">
<path fill="#242529" d="M23.341,46.647h6.284v7.177h-6.284V46.647z"/>
<path fill="#242529" d="M12.568,55.618h17.057v1.794H12.568V55.618z"/>
<path fill="#242529" d="M29.625,40.368H5.63c-0.898,0-1.142-0.217-1.142-1.115V8.9c0-0.898,0.243-0.827,1.142-0.827h23.995V3.588
	H2.402C1.075,3.588,0,4.349,0,5.675v36.804c0,1.326,1.075,2.374,2.402,2.374h27.223V40.368z"/>
<path fill="#242529" d="M6.284,14.476v24.098h23.341v-8.096c0,0-7.618,4.252-12.697-2.515c-1.519-2.023-0.667-5.92-3.801-9.486
	C10.886,15.925,6.284,14.476,6.284,14.476z"/>
<path fill="#242529" d="M48.041,0H36.151c-1.407,0-2.936,0.983-2.936,2.314v56.273c0,1.333,1.529,2.413,2.936,2.413h39.914
	C77.471,61,79,59.92,79,58.589V2.314C79,0.983,77.471,0,76.065,0H65.874 M65.874,3.588h8.492c0,0,1.043-0.291,1.043,0.558v52.61
	h0.001c0,0-0.194,0.656-1.043,0.656H37.85c-0.85,0-1.043-0.656-1.043-0.656V4.146c0-0.849,1.043-0.558,1.043-0.558h10.19"/>
<path fill="#242529" d="M41.716,6.725h25.443v1.838H41.716V6.725z"/>
<path fill="#242529" d="M41.716,22.198h7.996v1.838h-7.996V22.198z"/>
<path fill="#242529" d="M41.716,28.454h22.9v1.838h-22.9V28.454z"/>
<path fill="#242529" d="M41.716,31.482h22.9v1.84h-22.9V31.482z"/>
<path fill="#242529" d="M41.716,25.292h13.366v1.839H41.716V25.292z"/>
<path fill="#242529" d="M41.716,34.577h22.9v1.836h-22.9V34.577z"/>
<path fill="#242529" d="M41.716,40.767h5.244v1.837h-5.244V40.767z"/>
<path fill="#242529" d="M41.716,37.673h18.157v1.835H41.716V37.673z"/>
<path fill="#242529" d="M48.113,40.767h14.359v1.837H48.113V40.767z"/>
<path fill="#242529" d="M41.716,43.862h22.102v1.837H41.716V43.862z"/>
<path fill="#242529" d="M41.716,46.955h17.408v1.838H41.716V46.955z"/>
<path fill="#242529" d="M41.716,50.05H52.44v1.839H41.716V50.05z"/>
<path fill="#242529" d="M41.716,53.147h8.766v1.836h-8.766V53.147z"/>
<path fill="#242529" d="M41.716,9.82H58.62v1.838H41.716V9.82z"/>
<path fill="#242529" d="M41.716,12.914h12.166v1.838H41.716V12.914z"/>
<path fill="#242529" d="M41.716,16.009h13.91v1.838h-13.91V16.009z"/>
<path fill="#242529" d="M41.716,19.104h13.91v1.838h-13.91V19.104z"/>
<path fill="#242529" d="M38.869,6.725h1.591v1.838h-1.591V6.725z"/>
<path fill="#242529" d="M38.869,9.82h1.591v1.838h-1.591V9.82z"/>
<path fill="#242529" d="M38.869,12.914h1.591v1.838h-1.591V12.914z"/>
<path fill="#242529" d="M38.869,16.009h1.591v1.838h-1.591V16.009z"/>
<path fill="#242529" d="M38.869,19.104h1.591v1.838h-1.591V19.104z"/>
<path fill="#242529" d="M38.869,22.198h1.591v1.838h-1.591V22.198z"/>
<path fill="#242529" d="M38.869,25.292h1.591v1.839h-1.591V25.292z"/>
<path fill="#242529" d="M38.869,28.388h1.591v1.84h-1.591V28.388z"/>
<path fill="#242529" d="M38.869,31.482h1.591v1.84h-1.591V31.482z"/>
<path fill="#242529" d="M38.869,34.577h1.591v1.836h-1.591V34.577z"/>
<path fill="#242529" d="M38.869,37.673h1.591v1.835h-1.591V37.673z"/>
<path fill="#242529" d="M38.869,40.767h1.591v1.837h-1.591V40.767z"/>
<path fill="#242529" d="M38.869,43.862h1.591v1.837h-1.591V43.862z"/>
<path fill="#242529" d="M38.869,46.955h1.591v1.838h-1.591V46.955z"/>
<path fill="#242529" d="M38.869,50.05h1.591v1.839h-1.591V50.05z"/>
<path fill="#242529" d="M38.869,53.147h1.591v1.836h-1.591V53.147z"/>
</svg>
