<?xml version="1.0" encoding="utf-8"?>
<!-- Generator: Adobe Illustrator 16.0.0, SVG Export Plug-In . SVG Version: 6.00 Build 0)  -->
<!DOCTYPE svg PUBLIC "-//W3C//DTD SVG 1.1//EN" "http://www.w3.org/Graphics/SVG/1.1/DTD/svg11.dtd">
<svg version="1.1" id="Layer_1" xmlns="http://www.w3.org/2000/svg" xmlns:xlink="http://www.w3.org/1999/xlink" x="0px" y="0px"
	 width="68px" height="60.994px" viewBox="0 0 68 60.994" enable-background="new 0 0 68 60.994" xml:space="preserve">
<path fill="#242529" d="M45.406,49.815h4.535l0.53,2.442c0.065,0.301,0.099,0.608,0.099,0.916c0,4.312-3.558,7.821-7.929,7.821
	H25.361c-4.372,0-7.929-3.508-7.929-7.821c0-0.308,0.032-0.615,0.098-0.916l0.529-2.442h4.535l-0.727,3.356
	c0,1.903,1.564,3.447,3.495,3.447H42.64c1.93,0,3.495-1.543,3.495-3.447L45.406,49.815z M56.47,4.374H11.53
	c-3.919,0-7.096,3.133-7.096,6.999v24.884c0,3.866,3.177,6.999,7.096,6.999H56.47c3.919,0,7.096-3.133,7.096-6.999V11.373
	C63.565,7.507,60.389,4.374,56.47,4.374 M56.47,0C62.828,0,68,5.102,68,11.373v24.884c0,6.271-5.172,11.373-11.53,11.373H11.53
	C5.172,47.628,0,42.527,0,36.255V11.373C0,5.102,5.172,0,11.53,0H56.47L56.47,0z M9.423,38.599h49.153l0,0
	c0.582,0,1.127-0.224,1.54-0.629l0,0c0.413-0.408,0.638-0.946,0.638-1.52V8.748l0,0c0-0.567-0.232-1.12-0.638-1.521l0,0
	c-0.404-0.4-0.967-0.628-1.54-0.628H9.423l0,0c-0.574,0-1.136,0.229-1.542,0.628l0,0C7.477,7.628,7.243,8.181,7.243,8.748V36.45l0,0
	c0,0.565,0.234,1.119,0.64,1.52l0,0C8.288,38.369,8.85,38.599,9.423,38.599L9.423,38.599z M11.602,34.299V10.897h44.793v23.402
	H11.602L11.602,34.299z M34,39.002c-0.952,0-1.725,0.762-1.725,1.701s0.772,1.701,1.725,1.701s1.725-0.762,1.725-1.701
	S34.952,39.002,34,39.002z M34,13.607c4.967,0,8.993,3.971,8.993,8.87s-4.026,8.87-8.993,8.87c-4.966,0-8.993-3.97-8.993-8.87
	S29.034,13.607,34,13.607 M34,11.421c-6.181,0-11.21,4.96-11.21,11.057S27.819,33.534,34,33.534c6.182,0,11.21-4.96,11.21-11.057
	S40.182,11.421,34,11.421L34,11.421z M42.95,23.297c0.026-0.271,0.043-0.543,0.043-0.819s-0.017-0.549-0.043-0.819h-1.739
	c-0.093-1.224-0.395-2.389-0.869-3.464h1.53c-0.332-0.593-0.736-1.139-1.192-1.639h-1.238c-0.827-1.238-1.904-2.3-3.163-3.112
	c-0.707-0.455-1.472-0.827-2.28-1.113c-0.809,0.287-1.575,0.658-2.282,1.114c-1.258,0.812-2.334,1.874-3.162,3.111h-1.237
	c-0.456,0.5-0.86,1.046-1.192,1.639h1.53c-0.474,1.075-0.776,2.24-0.87,3.464h-1.737c-0.025,0.271-0.042,0.543-0.042,0.819
	s0.017,0.549,0.042,0.819h1.738c0.093,1.224,0.395,2.389,0.869,3.464h-1.529c0.333,0.593,0.736,1.139,1.192,1.639h1.236
	c0.828,1.238,1.904,2.3,3.163,3.112c0.707,0.456,1.472,0.828,2.28,1.114c0.809-0.286,1.574-0.658,2.282-1.114
	c1.259-0.812,2.335-1.874,3.164-3.112h1.237c0.456-0.5,0.86-1.046,1.192-1.639h-1.53c0.474-1.075,0.776-2.24,0.87-3.464H42.95z
	 M39.542,21.658H34.83v-3.464h3.664C39.062,19.244,39.428,20.414,39.542,21.658z M37.362,16.555H34.83v-2.053
	C35.794,15.036,36.65,15.732,37.362,16.555z M33.168,14.501v2.054h-2.531C31.349,15.731,32.205,15.035,33.168,14.501z
	 M29.505,18.194h3.664v3.464h-4.712C28.571,20.414,28.938,19.244,29.505,18.194z M28.457,23.297h4.712v3.464h-3.664
	C28.938,25.711,28.57,24.542,28.457,23.297z M30.637,28.4h2.532v2.053C32.205,29.92,31.349,29.223,30.637,28.4z M34.83,30.454V28.4
	h2.533C36.65,29.224,35.794,29.92,34.83,30.454z M38.494,26.761H34.83v-3.464h4.712C39.428,24.542,39.062,25.711,38.494,26.761z"/>
</svg>
