<?xml version="1.0" encoding="utf-8"?>
<!-- Generator: Adobe Illustrator 16.0.0, SVG Export Plug-In . SVG Version: 6.00 Build 0)  -->
<!DOCTYPE svg PUBLIC "-//W3C//DTD SVG 1.1//EN" "http://www.w3.org/Graphics/SVG/1.1/DTD/svg11.dtd">
<svg version="1.1" id="Layer_1" xmlns="http://www.w3.org/2000/svg" xmlns:xlink="http://www.w3.org/1999/xlink" x="0px" y="0px"
	 width="239.294px" height="319.907px" viewBox="0 0 239.294 319.907" enable-background="new 0 0 239.294 319.907"
	 xml:space="preserve">
<g>
	<path fill="none" d="M81.147,232.706c-0.631-0.07-1.264-0.122-1.899-0.157c-1.466,6.796-0.306,14.163,3.651,19.991
		c1.928,2.837,4.607,6.048,7.989,7.189c0.766,0.258,1.551,0.487,2.349,0.651c3.15-6.801,3.611-15.025-1.295-21.151
		C89.198,235.802,85.626,233.213,81.147,232.706z"/>
	<path fill="none" d="M151.525,234.707c1.217,1.36,2.434,2.721,3.648,4.083c-0.566-3.377-0.158-6.992,0.871-10.191
		C154.542,230.638,153.033,232.672,151.525,234.707z"/>
	<path d="M12.532,212.894c-2.967,1.748-5.819,3.753-8.406,6.028c-0.92,0.81-4.14,3.342-4.126,4.911
		c0.158,17.336,0.316,34.674,0.475,52.011c0.034,3.681,8.644-1.548,9.802-2.231c2.965-1.749,5.818-3.753,8.404-6.028
		c0.921-0.81,4.141-3.342,4.127-4.911c-0.158-17.336-0.316-34.674-0.475-52.011C22.299,206.981,13.69,212.21,12.532,212.894z"/>
	<path d="M9.866,213.372c2.966-1.749,5.819-3.753,8.406-6.029c0.957-0.841,4.101-3.31,4.125-4.911
		c0.115-7.226,0.23-14.45,0.345-21.677c0.06-3.687-8.706,1.585-9.801,2.23c-2.966,1.749-5.819,3.754-8.405,6.029
		c-0.957,0.842-4.101,3.31-4.127,4.911c-0.113,7.227-0.229,14.451-0.344,21.677C0.007,219.29,8.771,214.019,9.866,213.372z"/>
	<path d="M200.085,206.728c-4.084,2.407-10.734,6.178-12.533,10.939c-1.83,4.852-3.662,9.703-5.492,14.556
		c-0.973-0.737-1.797-1.713-2.475-2.673c-3.055-4.314-2.678-9.995-1.012-14.73c1.207-3.427-9.363,1.972-9.799,2.23
		c-2.338,1.378-5.652,3.269-8.34,5.545c5.398-7.383,10.762-14.791,16.037-22.262c3.303-4.678-4.912-1.328-6.25-0.657
		c-5.184,2.603-11.215,6.312-14.629,11.146c-3.734,5.285-7.512,10.54-11.311,15.781c-4.297-4.808-8.592-9.614-12.889-14.422
		c-2.486-2.782-13.53,4.502-19.129,9.956c-1.389-1.349-3.041-2.531-5.006-3.48c-6.463-3.127-13.547-1.906-20.006,0.551
		c-8.977,3.416-17.771,9.603-24.144,16.969c-0.468,0.361-0.922,0.733-1.359,1.115c-4.804,2.803-9.607,5.604-14.411,8.406
		c-0.169-15.911-0.338-31.824-0.508-47.737c5.645-4.016,11.285-8.046,16.965-12.017c-6.123,12.884-8.053,27.479-8.712,41.701
		c-0.171,3.69,8.782-1.629,9.802-2.23c2.966-1.749,5.818-3.753,8.405-6.028c1.004-0.883,4.05-3.271,4.127-4.911
		c0.754-16.28,2.839-34.124,12.347-47.861c1.334-1.928,0.664-3.026-1.666-2.47c-3.766,0.898-7.229,3.191-10.424,5.267
		c-12.098,7.853-46.5,31.093-49.086,33.368c-0.919,0.809-4.144,3.344-4.127,4.911c0.229,21.562,0.459,43.124,0.688,64.685
		c0.04,3.683,8.64-1.545,9.802-2.23c2.966-1.749,5.819-3.752,8.405-6.029c0.919-0.807,4.144-3.343,4.127-4.911
		c-0.023-2.144-0.046-4.288-0.068-6.433c3.064-1.787,6.129-3.575,9.193-5.363c-1.585,10.08,1.987,21.547,10.991,26.849
		c5.449,3.209,11.35,2.176,16.997,0.114c10.251-3.738,19.891-11.347,26.73-19.737c3.994-4.901,6.422-11.406,6.547-17.678
		c3.44,3.851,6.881,7.701,10.323,11.551c-17.094,23.021-34.485,45.83-51.396,68.978c-3.397,4.648,4.972,1.297,6.25,0.657
		c5.241-2.633,11.108-6.329,14.628-11.146c12.386-16.954,25.032-33.726,37.629-50.529c0.914,1.021,1.826,2.043,2.74,3.065
		c2.914,3.261,17.584-7.305,21.463-12.547c4.662,4.08,11.199,2.566,17.072-0.247c-0.932,2.467-1.861,4.935-2.793,7.402
		c-1.277,3.38,9.391-1.988,9.799-2.231c4.086-2.407,10.736-6.177,12.531-10.939c4.59-12.156,9.176-24.314,13.764-36.473
		C211.16,201.116,200.494,206.485,200.085,206.728z M93.237,260.381c-0.798-0.164-1.583-0.394-2.349-0.651
		c-3.382-1.142-6.062-4.353-7.989-7.189c-3.957-5.828-5.117-13.195-3.651-19.991c0.636,0.035,1.269,0.087,1.899,0.157
		c4.479,0.507,8.051,3.096,10.795,6.523C96.849,245.355,96.388,253.58,93.237,260.381z M155.173,238.79
		c-1.215-1.362-2.432-2.723-3.648-4.083c1.508-2.035,3.018-4.069,4.52-6.108C155.015,231.798,154.607,235.413,155.173,238.79z"/>
	<path d="M216.546,92.296c-0.439-0.372-7.893-6.64-16.896-12.263c0.658-0.049,1.314-0.083,1.967-0.104l23.711-0.8l-21.664-9.674
		c-2.5-1.118-9.338-3.42-16.809-5.511c-5.258-15.493-12.746-34.393-12.828-34.593l-3.055-7.701l-28.127,27.847
		c-2.158-0.56-4.352-1.04-6.562-1.438c-8.326-12.25-41.161-40.088-60.051-46.668L72.237,0l-2.355,3.511
		C47.587,36.761,48.538,77.68,50.306,95.515l-49.15,85.101l34.762-36.397l-8.714,16.984l17.461-11.195l-17.278,26.087l17.812-8.479
		c18.769-8.931,38.001-10.265,47.794-10.265c1.119,0,2.152,0.016,3.084,0.042c-0.312,2.311-0.572,4.904-0.562,7.121
		c0.051,9.725,5.803,25.675,6.459,27.464l3.043,8.289l6.072-6.409c6.78-7.158,25.284-14.351,38.793-19.603
		c2.623-1.019,5.09-1.979,7.309-2.872c12.129-4.885,39.398-20.658,46.16-32.224c0.967-1.654,3.482-5.96,4.646-9.786l0.16-0.366
		c0.846-1.698,2.348-5.629,0.312-9.07c-1.092-1.848-2.936-3.043-5.254-3.374c-0.174-6.169-1.371-12.37-3.539-18.404
		c4.742,1.229,9.354,2.725,11.52,3.486l28.1,9.883L216.546,92.296z M190.306,91.119c5.355,9.524,8.016,19.994,7.357,30.456
		c2.156,0.405,4.014,0.748,5.291,0.972c-0.049,0.008-0.084,0.006-0.135,0.015c-5.344,0.888-9.018,2.145-9.018,2.145
		c-0.029,0.008-0.002,0.14,0.072,0.369c0.527,1.64,3.441,8.321,5.102,11.027c-0.154,0.268-0.293,0.503-0.402,0.689
		c-5.43,9.289-30.328,24.204-43.43,29.825c-13.104,5.62-42.284,14.072-48.032,23.787c0,0-6.078-16.555-6.123-25.601
		c-0.023-4.866,1.492-12.171,1.492-12.171s-29.451-5.22-59.064,10.354c0.267-0.607,1.723-2.836,3.77-5.855l16.12-25.034
		L41.35,145.942l4.656-9.077l11.646-23.016l-28.911,30.271l27.196-47.09c-1.594-14.348-3.921-56.728,18.491-90.154
		c20.605,7.18,56.118,39.66,58.407,46.468l-0.004,0.005c3.854,0.586,7.734,1.434,11.611,2.589l24.494-24.25
		c0,0,8.393,21.146,13.656,37.084c8.246,2.196,16.602,4.628,18.838,6.001c-3.18,0.107-8.586,0.508-16.156,2.7
		c0.158,0.569,0.305,1.118,0.441,1.644c12.652,5.301,27.295,17.679,27.295,17.679S198.806,91.794,190.306,91.119z"/>
	<path fill="#F15A29" d="M185.275,77.474c7.57-2.192,12.977-2.593,16.156-2.7c-2.236-1.373-10.592-3.805-18.838-6.001
		c-5.264-15.938-13.656-37.084-13.656-37.084l-24.494,24.25c-3.877-1.155-7.758-2.003-11.611-2.589l0.004-0.005
		c-2.289-6.808-37.801-39.288-58.407-46.468C52.017,40.304,54.344,82.684,55.938,97.031l-27.196,47.09l5.602-9.698l33.268-34.218
		l-21.638,36.727l0.033-0.066l-4.656,9.077l31.651-23.464l-29.584,40.508c0,0,43.045-35.154,91.706-31.836
		c26.666,1.82,48.02-3.315,58.752-6.075c-0.074-0.229-0.102-0.361-0.072-0.369c0,0,3.674-1.257,9.018-2.145
		c0.051-0.009,0.086-0.007,0.135-0.015c-1.277-0.224-3.135-0.566-5.291-0.972c0.658-10.462-2.002-20.932-7.357-30.456
		c8.5,0.675,22.705,5.677,22.705,5.677s-14.643-12.378-27.295-17.679C185.58,78.592,185.433,78.043,185.275,77.474z M197.234,73.781
		c-6.59-1.754-10.166-2.714-19.15-2.757s-4.98-3.147-4.98-3.147v0.129C173.103,68.006,193.468,71.514,197.234,73.781z
		 M179.56,114.089c3.014-2.13,7.334-5.114,9.049-5.983c0,0.001,0,0.002,0.002,0.003c0.314-0.159,0.545-0.253,0.662-0.253
		c3.273-0.006,3.746,11.917,3.746,11.917l-16.621-3.423c0,0,1.344-0.973,3.164-2.258C179.562,114.091,179.56,114.09,179.56,114.089z
		 M178.808,67.777c-2.039-0.528-4.008-1.029-5.807-1.482c-4.4-3.658-8.945-7.014-8.945-7.014l4.299-21.993
		C170.56,40.491,174.91,55.526,178.808,67.777z M125.156,50.061c-34.36-2.943-54.43,22.43-54.43,22.43l5.156-60.896
		C84.501,14.186,121.857,41.342,125.156,50.061z M106.603,119.222c-18.826-8.551,15.42-17.675,24.03-16.909
		c0.898,0.08,2.477,0.711,4.428,1.671c0.002-0.002,0.004-0.005,0.006-0.007c5.193,2.553,13.07,7.459,18.133,10.703
		c-0.002,0.003-0.004,0.006-0.004,0.009c2.895,1.856,4.869,3.167,4.869,3.167S146.73,137.45,106.603,119.222z M131.927,100.205
		l-21.305-1.88c0,0-9.205-0.097-0.99-5.26c8.214-5.163,23.012,1.126,23.012,1.126l26.42,21.75L131.927,100.205z M193.019,104.646
		c-1.041,1.406-4.486,0.936-4.486,0.936l-12.135,8.233l12.135-12.693c0,0,0.584-0.737,1.068-0.917
		C192.171,99.252,194.06,103.234,193.019,104.646z M204.74,91.453c-10.367-5.401-13.184-6.599-20.031-8.449
		c-5.398-1.457-4.623-3.738-4.623-3.738S195.738,83.975,204.74,91.453z"/>
	<path fill="#FFFFFF" d="M143.208,121.588c-5.904,0-10.689-4.786-10.689-10.692c0-2.638,0.959-5.048,2.541-6.912
		c-1.951-0.96-3.529-1.591-4.428-1.671c-8.609-0.766-42.856,8.358-24.03,16.909c40.127,18.229,51.461-1.366,51.461-1.366
		s-1.975-1.311-4.869-3.167C151.664,118.719,147.777,121.588,143.208,121.588z"/>
	<path fill="#FFFFFF" d="M193.019,119.772c0,0-0.473-11.923-3.746-11.917c-0.117,0-0.348,0.094-0.662,0.253
		c0.479,0.811,0.758,1.751,0.758,2.761c0,3.002-2.434,5.436-5.436,5.436c-1.795,0-3.381-0.873-4.371-2.213
		c-1.82,1.285-3.164,2.258-3.164,2.258L193.019,119.772z"/>
	<path d="M143.208,121.588c4.568,0,8.455-2.869,9.986-6.899c0-0.003,0.002-0.006,0.004-0.009
		c-5.062-3.244-12.939-8.15-18.133-10.703c-0.002,0.002-0.004,0.005-0.006,0.007c-1.582,1.864-2.541,4.274-2.541,6.912
		C132.519,116.802,137.304,121.588,143.208,121.588z M137.509,108.732c0,0.481-0.391,0.874-0.875,0.874
		c-0.482,0-0.875-0.393-0.875-0.874c0-0.484,0.393-0.877,0.875-0.877C137.119,107.855,137.509,108.248,137.509,108.732z
		 M137.509,114.398c-0.967,0-1.75-0.783-1.75-1.752c0-0.968,0.783-1.751,1.75-1.751c0.969,0,1.752,0.783,1.752,1.751
		C139.261,113.615,138.478,114.398,137.509,114.398z M145.71,119.936c-2.096,0-3.791-1.7-3.791-3.791
		c0-2.097,1.695-3.792,3.791-3.792s3.791,1.695,3.791,3.792C149.501,118.235,147.806,119.936,145.71,119.936z"/>
	<path fill="#FFFFFF" d="M145.71,112.353c-2.096,0-3.791,1.695-3.791,3.792c0,2.091,1.695,3.791,3.791,3.791s3.791-1.7,3.791-3.791
		C149.501,114.048,147.806,112.353,145.71,112.353z"/>
	<circle fill="#FFFFFF" cx="137.509" cy="112.647" r="1.751"/>
	<circle fill="#FFFFFF" cx="136.634" cy="108.732" r="0.875"/>
	<path d="M183.933,116.305c3.002,0,5.436-2.434,5.436-5.436c0-1.01-0.279-1.95-0.758-2.761c-0.002-0.001-0.002-0.002-0.002-0.003
		c-1.715,0.869-6.035,3.854-9.049,5.983c0,0.001,0.002,0.002,0.002,0.003C180.552,115.432,182.138,116.305,183.933,116.305z
		 M184.21,115.941c-1.02,0-1.846-0.826-1.846-1.846c0-1.019,0.826-1.845,1.846-1.845s1.846,0.826,1.846,1.845
		C186.056,115.115,185.23,115.941,184.21,115.941z"/>
	<circle fill="#FFFFFF" cx="184.21" cy="114.096" r="1.845"/>
	<path fill="#FFFFFF" d="M70.726,72.49c0,0,20.07-25.373,54.43-22.43c-3.299-8.719-40.655-35.875-49.274-38.467L70.726,72.49z
		 M94.104,53.516C86.386,55.965,72.87,70.1,72.454,68.578s4.518-54.412,4.518-54.412S101.823,51.066,94.104,53.516z"/>
	<path fill="#FFFFFF" d="M164.056,59.281c0,0,4.545,3.355,8.945,7.014c1.799,0.453,3.768,0.954,5.807,1.482
		c-3.898-12.251-8.248-27.286-10.453-30.489L164.056,59.281z M168.47,38.74c0.775,0.879,1.551,24.359,1.551,24.359l-5.377-4.504
		L168.47,38.74z"/>
	<path fill="#F15B29" d="M43.417,162.986l3.77-5.855C45.14,160.15,43.684,162.379,43.417,162.986z"/>
	<path fill="#DCDCDC" d="M72.454,68.578c0.416,1.521,13.932-12.613,21.65-15.062s-17.133-39.35-17.133-39.35
		S72.038,67.057,72.454,68.578z"/>
	<path fill="#DCDCDC" d="M164.644,58.596l5.377,4.504c0,0-0.775-23.48-1.551-24.359L164.644,58.596z"/>
	<polygon fill="#C74A20" points="67.61,100.205 34.343,134.423 28.741,144.121 57.652,113.85 46.006,136.865 45.973,136.932 	"/>
	<polygon fill="#C74A20" points="73.001,122.479 41.35,145.942 63.307,132.097 47.187,157.131 43.417,162.986 	"/>
	<path fill="#C74A20" d="M109.632,93.065c-8.215,5.163,0.99,5.26,0.99,5.26l21.305,1.88l27.137,15.736l-26.42-21.75
		C132.644,94.191,117.846,87.902,109.632,93.065z"/>
	<path fill="#C74A20" d="M188.533,101.122l-12.135,12.693l12.135-8.233c0,0,3.445,0.471,4.486-0.936
		c1.041-1.412-0.848-5.395-3.418-4.441C189.117,100.385,188.533,101.122,188.533,101.122z"/>
	<path fill="#F47929" d="M173.103,68.006v-0.129c0,0-4.004,3.104,4.98,3.147s12.561,1.003,19.15,2.757
		C193.468,71.514,173.103,68.006,173.103,68.006z"/>
	<path fill="#F47929" d="M180.085,79.266c0,0-0.775,2.281,4.623,3.738c6.848,1.851,9.664,3.048,20.031,8.449
		C195.738,83.975,180.085,79.266,180.085,79.266z"/>
	<path fill="#FFFFFF" d="M135.123,131.15c-48.661-3.318-91.706,31.836-91.706,31.836c29.613-15.573,59.064-10.354,59.064-10.354
		s-1.516,7.305-1.492,12.171c0.045,9.046,6.123,25.601,6.123,25.601c5.748-9.715,34.928-18.167,48.032-23.787
		c13.102-5.621,38-20.536,43.43-29.825c0.109-0.187,0.248-0.422,0.402-0.689c-1.66-2.706-4.574-9.388-5.102-11.027
		C183.142,127.835,161.789,132.971,135.123,131.15z M143.847,143.864l-24.357,2.535l-0.906-2.583l24.357-2.534L143.847,143.864z
		 M142.941,156.224l0.906,2.583l-24.357,2.535l-0.906-2.583L142.941,156.224z M118.584,151.288l24.357-2.535l0.906,2.583
		l-24.357,2.535L118.584,151.288z M103.763,150.397c-12.113-5.926-40.672,1.393-36.152-0.235c3.164-1.14,6.686-3.19,6.686-3.19
		s30.189-11.324,34.168-4.398C112.44,149.504,105.001,151.001,103.763,150.397z"/>
	<path fill="#DCDCDC" d="M108.464,142.573c-3.979-6.926-34.168,4.398-34.168,4.398s-3.521,2.051-6.686,3.19
		c-4.52,1.628,24.039-5.69,36.152,0.235C105.001,151.001,112.44,149.504,108.464,142.573z"/>
	<polygon points="118.584,143.816 119.49,146.399 143.847,143.864 142.941,141.282 	"/>
	<polygon points="142.941,148.753 118.584,151.288 119.49,153.871 143.847,151.336 	"/>
	<polygon points="143.847,158.807 142.941,156.224 118.584,158.759 119.49,161.342 	"/>
</g>
</svg>
