<?xml version="1.0" encoding="utf-8"?>
<!-- Generator: Adobe Illustrator 16.0.0, SVG Export Plug-In . SVG Version: 6.00 Build 0)  -->
<!DOCTYPE svg PUBLIC "-//W3C//DTD SVG 1.1//EN" "http://www.w3.org/Graphics/SVG/1.1/DTD/svg11.dtd">
<svg version="1.1" id="Layer_1" xmlns="http://www.w3.org/2000/svg" xmlns:xlink="http://www.w3.org/1999/xlink" x="0px" y="0px"
	 width="238.139px" height="200.266px" viewBox="0 0 238.139 200.266" enable-background="new 0 0 238.139 200.266"
	 xml:space="preserve">
<g>
	<path d="M215.391,92.296c-0.439-0.372-7.893-6.64-16.896-12.263c0.658-0.049,1.314-0.083,1.967-0.104l23.711-0.8l-21.664-9.674
		c-2.5-1.118-9.338-3.42-16.809-5.511c-5.258-15.493-12.746-34.393-12.828-34.593l-3.055-7.701L141.69,49.497
		c-2.158-0.56-4.352-1.04-6.562-1.438c-8.326-12.25-41.161-40.088-60.051-46.668L71.082,0l-2.355,3.511
		C46.432,36.761,47.383,77.68,49.15,95.515L0,180.615l34.762-36.397l-8.714,16.984l17.461-11.195L26.23,176.094l17.812-8.479
		c18.769-8.931,38.001-10.265,47.794-10.265c1.119,0,2.152,0.016,3.084,0.042c-0.312,2.311-0.572,4.904-0.562,7.121
		c0.051,9.725,5.803,25.675,6.459,27.464l3.043,8.289l6.072-6.409c6.78-7.158,25.284-14.351,38.793-19.603
		c2.623-1.019,5.09-1.979,7.309-2.872c12.129-4.885,39.398-20.658,46.16-32.224c0.967-1.654,3.482-5.96,4.646-9.786l0.16-0.366
		c0.846-1.698,2.348-5.629,0.312-9.07c-1.092-1.848-2.936-3.043-5.254-3.374c-0.174-6.169-1.371-12.37-3.539-18.404
		c4.742,1.229,9.354,2.725,11.52,3.486l28.1,9.883L215.391,92.296z M189.151,91.119c5.355,9.524,8.016,19.994,7.357,30.456
		c2.156,0.405,4.014,0.748,5.291,0.972c-0.049,0.008-0.084,0.006-0.135,0.015c-5.344,0.888-9.018,2.145-9.018,2.145
		c-0.029,0.008-0.002,0.14,0.072,0.369c0.527,1.64,3.441,8.321,5.102,11.027c-0.154,0.268-0.293,0.503-0.402,0.689
		c-5.43,9.289-30.328,24.204-43.43,29.825c-13.104,5.62-42.284,14.072-48.032,23.787c0,0-6.078-16.555-6.123-25.601
		c-0.023-4.866,1.492-12.171,1.492-12.171s-29.451-5.22-59.064,10.354c0.267-0.607,1.723-2.836,3.77-5.855l16.12-25.034
		l-21.957,13.846l4.656-9.077l11.646-23.016l-28.911,30.271l27.196-47.09c-1.594-14.348-3.921-56.728,18.491-90.154
		c20.605,7.18,56.118,39.66,58.407,46.468l-0.004,0.005c3.854,0.586,7.734,1.434,11.611,2.589l24.494-24.25
		c0,0,8.393,21.146,13.656,37.084c8.246,2.196,16.602,4.628,18.838,6.001c-3.18,0.107-8.586,0.508-16.156,2.7
		c0.158,0.569,0.305,1.118,0.441,1.644c12.652,5.301,27.295,17.679,27.295,17.679S197.651,91.794,189.151,91.119z"/>
	<path fill="#F15A29" d="M184.12,77.474c7.57-2.192,12.977-2.593,16.156-2.7c-2.236-1.373-10.592-3.805-18.838-6.001
		c-5.264-15.938-13.656-37.084-13.656-37.084l-24.494,24.25c-3.877-1.155-7.758-2.003-11.611-2.589l0.004-0.005
		c-2.289-6.808-37.801-39.288-58.407-46.468C50.861,40.304,53.188,82.684,54.782,97.031l-27.196,47.09l5.602-9.698l33.268-34.218
		l-21.638,36.727l0.033-0.066l-4.656,9.077l31.651-23.464l-29.584,40.508c0,0,43.045-35.154,91.706-31.836
		c26.666,1.82,48.02-3.315,58.752-6.075c-0.074-0.229-0.102-0.361-0.072-0.369c0,0,3.674-1.257,9.018-2.145
		c0.051-0.009,0.086-0.007,0.135-0.015c-1.277-0.224-3.135-0.566-5.291-0.972c0.658-10.462-2.002-20.932-7.357-30.456
		c8.5,0.675,22.705,5.677,22.705,5.677s-14.643-12.378-27.295-17.679C184.424,78.592,184.278,78.043,184.12,77.474z M196.079,73.781
		c-6.59-1.754-10.166-2.714-19.15-2.757s-4.98-3.147-4.98-3.147v0.129C171.948,68.006,192.313,71.514,196.079,73.781z
		 M178.405,114.089c3.014-2.13,7.334-5.114,9.049-5.983c0,0.001,0,0.002,0.002,0.003c0.314-0.159,0.545-0.253,0.662-0.253
		c3.273-0.006,3.746,11.917,3.746,11.917l-16.621-3.423c0,0,1.344-0.973,3.164-2.258
		C178.407,114.091,178.405,114.09,178.405,114.089z M177.653,67.777c-2.039-0.528-4.008-1.029-5.807-1.482
		c-4.4-3.658-8.945-7.014-8.945-7.014l4.299-21.993C169.405,40.491,173.754,55.526,177.653,67.777z M124,50.061
		c-34.36-2.943-54.43,22.43-54.43,22.43l5.156-60.896C83.346,14.186,120.702,41.342,124,50.061z M105.447,119.222
		c-18.826-8.551,15.42-17.675,24.03-16.909c0.898,0.08,2.477,0.711,4.428,1.671c0.002-0.002,0.004-0.005,0.006-0.007
		c5.193,2.553,13.07,7.459,18.133,10.703c-0.002,0.003-0.004,0.006-0.004,0.009c2.895,1.856,4.869,3.167,4.869,3.167
		S145.575,137.45,105.447,119.222z M130.772,100.205l-21.305-1.88c0,0-9.205-0.097-0.99-5.26c8.214-5.163,23.012,1.126,23.012,1.126
		l26.42,21.75L130.772,100.205z M191.864,104.646c-1.041,1.406-4.486,0.936-4.486,0.936l-12.135,8.233l12.135-12.693
		c0,0,0.584-0.737,1.068-0.917C191.016,99.252,192.905,103.234,191.864,104.646z M203.584,91.453
		c-10.367-5.401-13.184-6.599-20.031-8.449c-5.398-1.457-4.623-3.738-4.623-3.738S194.583,83.975,203.584,91.453z"/>
	<path fill="#FFFFFF" d="M142.053,121.588c-5.904,0-10.689-4.786-10.689-10.692c0-2.638,0.959-5.048,2.541-6.912
		c-1.951-0.96-3.529-1.591-4.428-1.671c-8.609-0.766-42.856,8.358-24.03,16.909c40.127,18.229,51.461-1.366,51.461-1.366
		s-1.975-1.311-4.869-3.167C150.508,118.719,146.622,121.588,142.053,121.588z"/>
	<path fill="#FFFFFF" d="M191.864,119.772c0,0-0.473-11.923-3.746-11.917c-0.117,0-0.348,0.094-0.662,0.253
		c0.479,0.811,0.758,1.751,0.758,2.761c0,3.002-2.434,5.436-5.436,5.436c-1.795,0-3.381-0.873-4.371-2.213
		c-1.82,1.285-3.164,2.258-3.164,2.258L191.864,119.772z"/>
	<path d="M142.053,121.588c4.568,0,8.455-2.869,9.986-6.899c0-0.003,0.002-0.006,0.004-0.009
		c-5.062-3.244-12.939-8.15-18.133-10.703c-0.002,0.002-0.004,0.005-0.006,0.007c-1.582,1.864-2.541,4.274-2.541,6.912
		C131.364,116.802,136.149,121.588,142.053,121.588z M136.354,108.732c0,0.481-0.391,0.874-0.875,0.874
		c-0.482,0-0.875-0.393-0.875-0.874c0-0.484,0.393-0.877,0.875-0.877C135.963,107.855,136.354,108.248,136.354,108.732z
		 M136.354,114.398c-0.967,0-1.75-0.783-1.75-1.752c0-0.968,0.783-1.751,1.75-1.751c0.969,0,1.752,0.783,1.752,1.751
		C138.106,113.615,137.323,114.398,136.354,114.398z M144.555,119.936c-2.096,0-3.791-1.7-3.791-3.791
		c0-2.097,1.695-3.792,3.791-3.792s3.791,1.695,3.791,3.792C148.346,118.235,146.651,119.936,144.555,119.936z"/>
	<path fill="#FFFFFF" d="M144.555,112.353c-2.096,0-3.791,1.695-3.791,3.792c0,2.091,1.695,3.791,3.791,3.791s3.791-1.7,3.791-3.791
		C148.346,114.048,146.651,112.353,144.555,112.353z"/>
	<circle fill="#FFFFFF" cx="136.354" cy="112.647" r="1.751"/>
	<circle fill="#FFFFFF" cx="135.479" cy="108.732" r="0.875"/>
	<path d="M182.778,116.305c3.002,0,5.436-2.434,5.436-5.436c0-1.01-0.279-1.95-0.758-2.761c-0.002-0.001-0.002-0.002-0.002-0.003
		c-1.715,0.869-6.035,3.854-9.049,5.983c0,0.001,0.002,0.002,0.002,0.003C179.397,115.432,180.983,116.305,182.778,116.305z
		 M183.055,115.941c-1.02,0-1.846-0.826-1.846-1.846c0-1.019,0.826-1.845,1.846-1.845s1.846,0.826,1.846,1.845
		C184.901,115.115,184.075,115.941,183.055,115.941z"/>
	<circle fill="#FFFFFF" cx="183.055" cy="114.096" r="1.845"/>
	<path fill="#FFFFFF" d="M69.57,72.49c0,0,20.07-25.373,54.43-22.43c-3.299-8.719-40.655-35.875-49.274-38.467L69.57,72.49z
		 M92.949,53.516C85.23,55.965,71.715,70.1,71.299,68.578s4.518-54.412,4.518-54.412S100.668,51.066,92.949,53.516z"/>
	<path fill="#FFFFFF" d="M162.901,59.281c0,0,4.545,3.355,8.945,7.014c1.799,0.453,3.768,0.954,5.807,1.482
		c-3.898-12.251-8.248-27.286-10.453-30.489L162.901,59.281z M167.315,38.74c0.775,0.879,1.551,24.359,1.551,24.359l-5.377-4.504
		L167.315,38.74z"/>
	<path fill="#F15B29" d="M42.262,162.986l3.77-5.855C43.984,160.15,42.529,162.379,42.262,162.986z"/>
	<path fill="#DCDCDC" d="M71.299,68.578c0.416,1.521,13.932-12.613,21.65-15.062s-17.133-39.35-17.133-39.35
		S70.883,67.057,71.299,68.578z"/>
	<path fill="#DCDCDC" d="M163.489,58.596l5.377,4.504c0,0-0.775-23.48-1.551-24.359L163.489,58.596z"/>
	<polygon fill="#C74A20" points="66.455,100.205 33.188,134.423 27.586,144.121 56.497,113.85 44.851,136.865 44.817,136.932 	"/>
	<polygon fill="#C74A20" points="71.846,122.479 40.194,145.942 62.151,132.097 46.032,157.131 42.262,162.986 	"/>
	<path fill="#C74A20" d="M108.477,93.065c-8.215,5.163,0.99,5.26,0.99,5.26l21.305,1.88l27.137,15.736l-26.42-21.75
		C131.489,94.191,116.69,87.902,108.477,93.065z"/>
	<path fill="#C74A20" d="M187.377,101.122l-12.135,12.693l12.135-8.233c0,0,3.445,0.471,4.486-0.936
		c1.041-1.412-0.848-5.395-3.418-4.441C187.961,100.385,187.377,101.122,187.377,101.122z"/>
	<path fill="#F47929" d="M171.948,68.006v-0.129c0,0-4.004,3.104,4.98,3.147s12.561,1.003,19.15,2.757
		C192.313,71.514,171.948,68.006,171.948,68.006z"/>
	<path fill="#F47929" d="M178.93,79.266c0,0-0.775,2.281,4.623,3.738c6.848,1.851,9.664,3.048,20.031,8.449
		C194.583,83.975,178.93,79.266,178.93,79.266z"/>
	<path fill="#FFFFFF" d="M133.967,131.15c-48.661-3.318-91.706,31.836-91.706,31.836c29.613-15.573,59.064-10.354,59.064-10.354
		s-1.516,7.305-1.492,12.171c0.045,9.046,6.123,25.601,6.123,25.601c5.748-9.715,34.928-18.167,48.032-23.787
		c13.102-5.621,38-20.536,43.43-29.825c0.109-0.187,0.248-0.422,0.402-0.689c-1.66-2.706-4.574-9.388-5.102-11.027
		C181.987,127.835,160.633,132.971,133.967,131.15z M142.692,143.864l-24.357,2.535l-0.906-2.583l24.357-2.534L142.692,143.864z
		 M141.786,156.224l0.906,2.583l-24.357,2.535l-0.906-2.583L141.786,156.224z M117.429,151.288l24.357-2.535l0.906,2.583
		l-24.357,2.535L117.429,151.288z M102.607,150.397c-12.113-5.926-40.672,1.393-36.152-0.235c3.164-1.14,6.686-3.19,6.686-3.19
		s30.189-11.324,34.168-4.398C111.285,149.504,103.846,151.001,102.607,150.397z"/>
	<path fill="#DCDCDC" d="M107.309,142.573c-3.979-6.926-34.168,4.398-34.168,4.398s-3.521,2.051-6.686,3.19
		c-4.52,1.628,24.039-5.69,36.152,0.235C103.846,151.001,111.285,149.504,107.309,142.573z"/>
	<polygon points="117.429,143.816 118.335,146.399 142.692,143.864 141.786,141.282 	"/>
	<polygon points="141.786,148.753 117.429,151.288 118.335,153.871 142.692,151.336 	"/>
	<polygon points="142.692,158.807 141.786,156.224 117.429,158.759 118.335,161.342 	"/>
</g>
</svg>
