<?xml version="1.0" encoding="utf-8"?>
<!-- Generator: Adobe Illustrator 16.0.0, SVG Export Plug-In . SVG Version: 6.00 Build 0)  -->
<!DOCTYPE svg PUBLIC "-//W3C//DTD SVG 1.1//EN" "http://www.w3.org/Graphics/SVG/1.1/DTD/svg11.dtd">
<svg version="1.1" id="Layer_1" xmlns="http://www.w3.org/2000/svg" xmlns:xlink="http://www.w3.org/1999/xlink" x="0px" y="0px"
	 width="91.498px" height="67.522px" viewBox="0 0 91.498 67.522" enable-background="new 0 0 91.498 67.522" xml:space="preserve">
<path fill="#242529" d="M5.461,21.176c-1.293,0.757-2.536,1.625-3.663,2.611C1.397,24.137-0.006,25.234,0,25.914
	c0.069,7.508,0.138,15.017,0.207,22.525c0.015,1.594,3.766-0.67,4.271-0.966c1.292-0.757,2.535-1.625,3.662-2.611
	c0.401-0.351,1.804-1.447,1.798-2.127C9.869,35.227,9.8,27.718,9.731,20.209C9.716,18.615,5.965,20.88,5.461,21.176z"/>
<path fill="#242529" d="M4.299,21.383c1.292-0.758,2.536-1.625,3.663-2.611c0.417-0.364,1.787-1.434,1.797-2.127
	c0.05-3.129,0.1-6.258,0.15-9.388C9.936,5.66,6.116,7.943,5.639,8.223C4.347,8.98,3.104,9.849,1.977,10.834
	c-0.417,0.365-1.787,1.434-1.798,2.127c-0.05,3.129-0.1,6.258-0.15,9.388C0.003,23.946,3.822,21.663,4.299,21.383z"/>
<path fill="#242529" d="M87.182,18.505c-1.78,1.042-4.677,2.676-5.461,4.738c-0.797,2.101-1.596,4.203-2.393,6.304
	c-0.424-0.319-0.783-0.742-1.078-1.157c-1.331-1.869-1.167-4.329-0.441-6.38c0.526-1.484-4.08,0.854-4.27,0.966
	c-1.019,0.597-2.463,1.416-3.634,2.401c2.353-3.197,4.689-6.406,6.988-9.642c1.439-2.026-2.14-0.575-2.723-0.284
	c-2.259,1.127-4.887,2.733-6.374,4.827c-1.627,2.289-3.273,4.565-4.929,6.835c-1.872-2.082-3.743-4.164-5.616-6.246
	c-1.083-1.205-5.895,1.95-8.335,4.312c-0.605-0.584-1.325-1.096-2.181-1.507c-2.816-1.354-5.902-0.826-8.717,0.238
	c-3.911,1.479-7.743,4.159-10.52,7.349c-0.204,0.157-0.402,0.317-0.592,0.483c-2.093,1.214-4.187,2.427-6.279,3.641
	c-0.074-6.891-0.147-13.783-0.222-20.674c2.46-1.739,4.917-3.485,7.393-5.205c-2.668,5.58-3.509,11.901-3.796,18.061
	c-0.075,1.598,3.827-0.706,4.271-0.966c1.292-0.757,2.535-1.625,3.662-2.61c0.438-0.383,1.765-1.417,1.799-2.127
	c0.328-7.051,1.236-14.779,5.379-20.728c0.581-0.835,0.29-1.311-0.726-1.07c-1.641,0.389-3.149,1.382-4.542,2.281
	c-5.271,3.4-20.261,13.466-21.388,14.451c-0.4,0.35-1.806,1.448-1.798,2.127c0.1,9.339,0.2,18.677,0.299,28.015
	c0.018,1.595,3.765-0.669,4.271-0.966c1.292-0.757,2.535-1.625,3.662-2.611c0.4-0.35,1.806-1.448,1.798-2.127
	c-0.01-0.928-0.02-1.857-0.029-2.786c1.335-0.774,2.67-1.548,4.006-2.323c-0.691,4.366,0.866,9.332,4.789,11.628
	c2.374,1.39,4.945,0.942,7.406,0.049c4.466-1.619,8.667-4.914,11.646-8.548c1.741-2.123,2.798-4.94,2.853-7.656
	c1.499,1.667,2.998,3.335,4.498,5.002c-7.448,9.97-15.025,19.849-22.395,29.874c-1.48,2.013,2.167,0.562,2.724,0.285
	c2.283-1.14,4.84-2.741,6.374-4.827c5.396-7.343,10.907-14.606,16.396-21.884c0.398,0.442,0.796,0.885,1.194,1.328
	c1.27,1.412,7.662-3.164,9.352-5.434c2.031,1.767,4.88,1.111,7.438-0.107c-0.406,1.068-0.811,2.137-1.217,3.206
	c-0.557,1.463,4.092-0.861,4.27-0.967c1.78-1.042,4.678-2.675,5.46-4.738c2-5.265,3.999-10.53,5.998-15.796
	C92.007,16.075,87.36,18.401,87.182,18.505z M40.626,41.742c-0.348-0.071-0.689-0.17-1.023-0.282
	c-1.474-0.495-2.641-1.885-3.481-3.114c-1.724-2.524-2.229-5.715-1.591-8.658c0.277,0.015,0.553,0.038,0.828,0.068
	c1.951,0.22,3.508,1.341,4.703,2.826C42.199,35.235,41.999,38.797,40.626,41.742z M67.613,32.392c-0.53-0.59-1.06-1.179-1.59-1.769
	c0.657-0.881,1.315-1.762,1.969-2.646C67.544,29.363,67.366,30.929,67.613,32.392z"/>
</svg>
